<?xml version="1.0" encoding="iso-8859-1"?>
<!-- Generator: Adobe Illustrator 19.0.0, SVG Export Plug-In . SVG Version: 6.00 Build 0)  -->
<svg version="1.1" id="Layer_1" xmlns="http://www.w3.org/2000/svg" xmlns:xlink="http://www.w3.org/1999/xlink" x="0px" y="0px"
	 viewBox="0 0 360 360" style="enable-background:new 0 0 360 360;" xml:space="preserve">
<g id="XMLID_459_">
	<g>
		<g>
			<path d="M180,0C80.748,0,0,80.748,0,180s80.748,180,180,180s180-80.748,180-180S279.252,0,180,0z M180,340
				c-88.224,0-160-71.776-160-160S91.776,20,180,20s160,71.776,160,160S268.224,340,180,340z"/>
			<path d="M94.315,265.685l128.962-42.407l42.407-128.962l-128.962,42.407L94.315,265.685z M234.315,125.685l-26.882,81.749
				l-81.749,26.882l26.882-81.749L234.315,125.685z"/>
		</g>
	</g>
</g>
<g>
</g>
<g>
</g>
<g>
</g>
<g>
</g>
<g>
</g>
<g>
</g>
<g>
</g>
<g>
</g>
<g>
</g>
<g>
</g>
<g>
</g>
<g>
</g>
<g>
</g>
<g>
</g>
<g>
</g>
</svg>
